PathFileType	4	(X/Y/Z)	CPRIT_Patient3_L_AnkleIso_Processed.TRC
DataRate	CameraRate	NumFrames	NumMarkers	Units	OrigDataRate	OrigDataStartFrame	OrigNumFrames
150.205761316872	150.205761316872	4	36	m	150.205761316872	92	       731
Frame#	Time	R.Heel			R.Midfoot.Superior			R.Midfoot.Lateral			R.Toe			L.Heel			L.Midfoot.Superior			L.Midfoot.Lateral			L.Toe			R.Shank.Superior			R.Shank.Inferior			R.Shank.Lateral			R.Shank.Posterior			L.Shank.Superior			L.Shank.Inferior			L.Shank.Posterior			L.Shank.Lateral			R.Patella			L.Patella			R.Thigh.Superior			R.Thigh.Lateral			R.Thigh.Inferior			L.Thigh.Superior			L.Thigh.Inferior			L.Thigh.Lateral			L.Asis			R.Asis			R.Shoulder			L.Shoulder			C7			J.Notch			Sternum			Thoracic			L.Elbow			L.Wrist			R.Elbow			R.Wrist			
		X1	Y1	Z1	X2	Y2	Z2	X3	Y3	Z3	X4	Y4	Z4	X5	Y5	Z5	X6	Y6	Z6	X7	Y7	Z7	X8	Y8	Z8	X9	Y9	Z9	X10	Y10	Z10	X11	Y11	Z11	X12	Y12	Z12	X13	Y13	Z13	X14	Y14	Z14	X15	Y15	Z15	X16	Y16	Z16	X17	Y17	Z17	X18	Y18	Z18	X19	Y19	Z19	X20	Y20	Z20	X21	Y21	Z21	X22	Y22	Z22	X23	Y23	Z23	X24	Y24	Z24	X25	Y25	Z25	X26	Y26	Z26	X27	Y27	Z27	X28	Y28	Z28	X29	Y29	Z29	X30	Y30	Z30	X31	Y31	Z31	X32	Y32	Z32	X33	Y33	Z33	X34	Y34	Z34	X35	Y35	Z35	X36	Y36	Z36	

92	0.605835616438	0.416280981616	0.049481701899	0.096352078879	0.571855781203	0.098741872886	0.167415045484	0.469539927327	0.037873374199	0.175903827456	0.677520335798	0.055367339536	0.217881204968	0.749988468825	0.060052396278	-0.046123348153	0.854403482773	0.180586112860	-0.128582344103	0.785799340227	0.084389220937	-0.134122373373	0.956242198860	0.194237791783	-0.195128252286	0.529983752435	0.359390332037	0.181793544562	0.520842429552	0.239742787184	0.173049880533	0.441650652351	0.293843554782	0.211289442320	0.395272388104	0.359897091442	0.143035265167	0.740318200801	0.420077726757	-0.103322794668	0.772083067753	0.294386314573	-0.100170627411	0.620103204931	0.353585891607	-0.063743795653	0.690661050862	0.316022538385	-0.133014982087	0.562408999548	0.465863541368	0.171649013957	0.724366490672	0.539517068505	-0.093649526690	0.621768019587	0.777098938812	0.192448588231	0.531484736098	0.710111805013	0.242339684283	0.608348510150	0.616934193196	0.166363184696	0.643051698480	0.819809628981	-0.089982107599	0.690013509565	0.678936237192	-0.089943630108	0.570612206672	0.728398044158	-0.139825464712	0.599033444817	0.949379999522	-0.060693011416	0.621251622056	0.937117784019	0.176176186571	0.543983731575	1.461278666712	0.208343481276	0.577162338618	1.435541521366	-0.107689234939	0.525351251681	1.482581236739	0.062353372432	0.628370358834	1.370455412545	0.060578275646	0.668812720127	1.190284786599	0.055087775530	0.419543921659	1.332218882777	0.060264384110	0.529210779196	1.177992116979	-0.294770095900	0.613651299167	0.987820584602	-0.433364888468	0.503794865662	1.186230341432	0.406985593223	0.661309450113	0.988353939218	0.415994452808	
93	0.612493150685	0.416281317706	0.049481258105	0.096351333563	0.571858769115	0.098740773408	0.167415039579	0.469540913159	0.037874155002	0.175902994166	0.677525035707	0.055359950045	0.217883209855	0.749253291453	0.060814509150	-0.046321785760	0.855183392422	0.179892331595	-0.128938195353	0.785442953149	0.084482556494	-0.134300985707	0.957274425307	0.192037266602	-0.195367283044	0.529978913589	0.359391521829	0.181797327586	0.520840511608	0.239744287903	0.173052487174	0.441648931878	0.293842236502	0.211299482911	0.395261712376	0.359896232449	0.143049567636	0.740155154555	0.420147075703	-0.103556792148	0.772021049282	0.294505138050	-0.100559900238	0.620017623417	0.353620746967	-0.063747724150	0.690540528813	0.316131721300	-0.133066801613	0.562403758482	0.465863520670	0.171652711040	0.724196193459	0.539518582244	-0.093921311220	0.621769942871	0.777092418658	0.192441353293	0.531492793130	0.710108809499	0.242348761683	0.608328980321	0.616923604029	0.166342080434	0.642974075174	0.819818416836	-0.090035960458	0.689707414641	0.678916411315	-0.090509987958	0.570490699563	0.728446532061	-0.139899487782	0.599003220781	0.949374645886	-0.060694806561	0.621260784344	0.937107902018	0.176170883870	0.544028604610	1.461288093018	0.208352488242	0.577192654547	1.435537101091	-0.107677817603	0.525399529293	1.482586218701	0.062362788893	0.628403292940	1.370458954944	0.060593095632	0.668846459973	1.190285705898	0.055093623659	0.419570598202	1.332235250720	0.060295713245	0.529238597658	1.177990862242	-0.294751139984	0.613654354859	0.987821186184	-0.433363416885	0.503818755411	1.186246471782	0.407002617776	0.661311181160	0.988353158549	0.415996301264	
94	0.619150684932	0.416281657388	0.049480959108	0.096350809174	0.571861549248	0.098739573248	0.167414969682	0.469541931101	0.037874843304	0.175902374192	0.677529746934	0.055352312740	0.217885127228	0.748494747268	0.061624741898	-0.046516945364	0.855988209819	0.179160030549	-0.129291582817	0.785090505470	0.084572368529	-0.134471568207	0.958339252819	0.189735026266	-0.195577357603	0.529973666437	0.359392697723	0.181801972626	0.520838427421	0.239745895295	0.173055704474	0.441646991632	0.293840651365	0.211310256869	0.395250336603	0.359895135295	0.143064889370	0.739997739885	0.420222952630	-0.103796346060	0.771965568995	0.294632676711	-0.100949706232	0.619936393675	0.353659850901	-0.063752480336	0.690423203362	0.316245833879	-0.133120441698	0.562397730609	0.465863555592	0.171657023503	0.724031377000	0.539524896424	-0.094195223919	0.621770675449	0.777086083567	0.192434407643	0.531500049484	0.710105991791	0.242359349378	0.608308842711	0.616913457925	0.166321745930	0.642895671110	0.819830543442	-0.090089736895	0.689431118728	0.678905767168	-0.091023370440	0.570369660365	0.728496973423	-0.139974089453	0.598970323336	0.949369568658	-0.060695965085	0.621268561444	0.937098596618	0.176166745527	0.544074078515	1.461298056989	0.208361295193	0.577221164226	1.435532244610	-0.107666588687	0.525447674563	1.482591319647	0.062371767244	0.628435612535	1.370461911795	0.060607797609	0.668879089996	1.190286459370	0.055098712507	0.419596122453	1.332252237140	0.060327669486	0.529265907972	1.177989334452	-0.294732508830	0.613657574869	0.987821756915	-0.433362062047	0.503842297004	1.186262763461	0.407018993138	0.661312570987	0.988352486866	0.415997912383	
95	0.625808219178	0.416282003929	0.049480823716	0.096350528040	0.571864114770	0.098738275541	0.167414848767	0.469542981893	0.037875415781	0.175901978872	0.677534444535	0.055344345870	0.217886888951	0.747715364599	0.062481480079	-0.046708662512	0.856812767233	0.178389857895	-0.129642416152	0.784741832745	0.084657829431	-0.134634008212	0.959428676678	0.187337189057	-0.195758545371	0.529968036870	0.359393837718	0.181807557263	0.520836188551	0.239747578424	0.173059584195	0.441644834592	0.293838779051	0.211321762221	0.395238334832	0.359893815432	0.143081217837	0.739846558045	0.420305021869	-0.104041976246	0.771916520409	0.294768361333	-0.101339545920	0.619859779599	0.353703332922	-0.063758414852	0.690308897590	0.316364449206	-0.133176462264	0.562390907199	0.465863635247	0.171662067689	0.723873134256	0.539536214414	-0.094471299470	0.621770077241	0.777079981358	0.192428084491	0.531506313039	0.710103395924	0.242371634028	0.608288106849	0.616903833669	0.166302471747	0.642816611600	0.819846084543	-0.090143703673	0.689184783892	0.678904413779	-0.091484948043	0.570249223018	0.728549286713	-0.140049332940	0.598934924424	0.949364817282	-0.060696363855	0.621274734534	0.937089949899	0.176164071306	0.544120100449	1.461308530613	0.208369890016	0.577247951363	1.435527015497	-0.107655544213	0.525495597213	1.482596500981	0.062380344660	0.628467188105	1.370464241302	0.060622309725	0.668910409060	1.190286985174	0.055103247124	0.419620375191	1.332269838745	0.060360173328	0.529292726597	1.177987532825	-0.294714201909	0.613660949543	0.987822272967	-0.433360807999	0.503865482810	1.186279208008	0.407034743393	0.661313588030	0.988351931225	0.415999365362	
